<?xml version="1.0" encoding="UTF-8"?><svg id="Layer_2" xmlns="http://www.w3.org/2000/svg" viewBox="0 0 57.69 63.9"><defs><style>.cls-1{fill:#fff;}</style></defs><g id="Layer_1-2"><path class="cls-1" d="m57.69,0h-20.09s-4.08.35-6.62,4.15c-2.55,3.8-11.85,17.82-11.85,17.82l-4.95-7.56H.12s2.78,9.34,3.13,10.69c.35,1.34,1.05,3.85,1.2,4.67.08.38.97,4.2,1.05,6.72,0,.65.24,5.59-.34,8.87-.24,1.22-.39,3.8-2.43,9.75-1.51,4.91-2.73,8.75-2.73,8.75h10.28s4.2-.43,6.51-3.88c.67-1.02,9.14-13.45,9.14-13.45l6.24,9.44h-7.88l-5.38,7.91h27.66l-15.9-24.28L57.69,0ZM10.97,54.64c.95-2.64,1.62-6.88,1.78-8.06,1.81-12.12-1.99-23.14-1.99-23.14l8.26,12.58s17.84-26.64,18.34-27.39c.5-.75,1.02-.68,1.02-.68h4.52S11.36,54.24,10.97,54.64"/></g></svg>