<svg  xmlns="http://www.w3.org/2000/svg" xmlns:xlink="http://www.w3.org/1999/xlink" version="1.1"
	x="0px" y="0px" viewBox="0 0 96 96" style="enable-background:new 0 0 96 96;"
	xml:space="preserve"><path class="st0"
	d="M33.774,8.661h28.452c0.416,0,0.755,0.339,0.755,0.755v47.388h-8.127V41.797H41.577v15.006H33.02V9.415  C33.02,9,33.359,8.661,33.774,8.661L33.774,8.661z M62.404,74.734l29.793,0c0.591,0,1.032-0.527,0.929-1.109  C91.785,66.101,85.21,60.389,77.3,60.389c-7.91,0-14.484,5.713-15.825,13.237C61.372,74.207,61.813,74.734,62.404,74.734  L62.404,74.734z M18.7,42.246c4.489,0,8.128,3.639,8.128,8.128s-3.639,8.128-8.128,8.128c-4.489,0-8.128-3.639-8.128-8.128  S14.211,42.246,18.7,42.246L18.7,42.246z M77.3,42.246c4.489,0,8.128,3.639,8.128,8.128s-3.639,8.128-8.128,8.128  c-4.489,0-8.128-3.639-8.128-8.128S72.812,42.246,77.3,42.246L77.3,42.246z M3.803,74.734l29.793,0c0.591,0,1.032-0.527,0.929-1.109  c-1.341-7.524-7.916-13.237-15.825-13.237c-7.91,0-14.484,5.713-15.825,13.237C2.771,74.207,3.213,74.734,3.803,74.734L3.803,74.734  z M77.3,24.257c0-0.416-0.339-0.755-0.755-0.755H66v33.301h2.195c-1.285-1.817-2.041-4.035-2.041-6.429  c0-3.429,1.55-6.497,3.987-8.542v-3.213c0-0.208,0.169-0.377,0.377-0.377h2.264c0.208,0,0.377,0.169,0.377,0.377v1.403  c1.28-0.513,2.678-0.795,4.141-0.795h0V24.257L77.3,24.257z M70.141,30.837c0-0.208,0.169-0.377,0.377-0.377h2.264  c0.208,0,0.377,0.169,0.377,0.377v3.067c0,0.208-0.169,0.377-0.377,0.377h-2.264c-0.208,0-0.377-0.169-0.377-0.377V30.837  L70.141,30.837z M18.7,24.257v14.97h0c1.463,0,2.861,0.283,4.141,0.795v-1.403c0-0.208,0.169-0.377,0.377-0.377h2.264  c0.208,0,0.377,0.169,0.377,0.377v3.213c2.437,2.045,3.987,5.113,3.987,8.542c0,2.394-0.756,4.612-2.041,6.429h2.195V23.502H19.454  C19.039,23.502,18.7,23.841,18.7,24.257L18.7,24.257z M25.86,30.837v3.067c0,0.208-0.169,0.377-0.377,0.377h-2.264  c-0.208,0-0.377-0.169-0.377-0.377v-3.067c0-0.208,0.169-0.377,0.377-0.377h2.264C25.69,30.459,25.86,30.629,25.86,30.837  L25.86,30.837z M48,60.795c4.489,0,8.128,3.639,8.128,8.128c0,4.489-3.639,8.128-8.128,8.128c-4.489,0-8.128-3.639-8.128-8.128  C39.872,64.434,43.511,60.795,48,60.795L48,60.795z M33.104,93.283l29.793,0c0.591,0,1.032-0.527,0.929-1.109  C62.484,84.65,55.91,78.937,48,78.937c-7.91,0-14.484,5.713-15.825,13.237C32.071,92.756,32.513,93.283,33.104,93.283L33.104,93.283  z M57.422,2.717v2.925H38.708V2.717H57.422L57.422,2.717z M38.684,13.498c-0.208,0-0.377,0.169-0.377,0.377v2.264  c0,0.208,0.169,0.377,0.377,0.377h3.067c0.208,0,0.377-0.169,0.377-0.377v-2.264c0-0.208-0.169-0.377-0.377-0.377H38.684  L38.684,13.498z M54.249,13.498c-0.208,0-0.377,0.169-0.377,0.377v2.264c0,0.208,0.169,0.377,0.377,0.377h3.067  c0.208,0,0.377-0.169,0.377-0.377v-2.264c0-0.208-0.169-0.377-0.377-0.377H54.249L54.249,13.498z M46.467,13.498  c-0.208,0-0.377,0.169-0.377,0.377v2.264c0,0.208,0.169,0.377,0.377,0.377h3.067c0.208,0,0.377-0.169,0.377-0.377v-2.264  c0-0.208-0.169-0.377-0.377-0.377H46.467L46.467,13.498z M38.684,20.442c-0.208,0-0.377,0.169-0.377,0.377v2.264  c0,0.208,0.169,0.377,0.377,0.377h3.067c0.208,0,0.377-0.169,0.377-0.377v-2.264c0-0.208-0.169-0.377-0.377-0.377H38.684  L38.684,20.442z M54.249,20.442c-0.208,0-0.377,0.169-0.377,0.377v2.264c0,0.208,0.169,0.377,0.377,0.377h3.067  c0.208,0,0.377-0.169,0.377-0.377v-2.264c0-0.208-0.169-0.377-0.377-0.377H54.249L54.249,20.442z M46.467,20.442  c-0.208,0-0.377,0.169-0.377,0.377v2.264c0,0.208,0.169,0.377,0.377,0.377h3.067c0.208,0,0.377-0.169,0.377-0.377v-2.264  c0-0.208-0.169-0.377-0.377-0.377H46.467L46.467,20.442z M38.684,27.385c-0.208,0-0.377,0.169-0.377,0.377v2.264  c0,0.208,0.169,0.377,0.377,0.377h3.067c0.208,0,0.377-0.169,0.377-0.377v-2.264c0-0.208-0.169-0.377-0.377-0.377H38.684  L38.684,27.385z M54.249,27.385c-0.208,0-0.377,0.169-0.377,0.377v2.264c0,0.208,0.169,0.377,0.377,0.377h3.067  c0.208,0,0.377-0.169,0.377-0.377v-2.264c0-0.208-0.169-0.377-0.377-0.377H54.249L54.249,27.385z M46.467,27.385  c-0.208,0-0.377,0.169-0.377,0.377v2.264c0,0.208,0.169,0.377,0.377,0.377h3.067c0.208,0,0.377-0.169,0.377-0.377v-2.264  c0-0.208-0.169-0.377-0.377-0.377H46.467L46.467,27.385z M38.684,34.329c-0.208,0-0.377,0.169-0.377,0.377v2.264  c0,0.208,0.169,0.377,0.377,0.377h3.067c0.208,0,0.377-0.169,0.377-0.377v-2.264c0-0.208-0.169-0.377-0.377-0.377H38.684  L38.684,34.329z M54.249,34.329c-0.208,0-0.377,0.169-0.377,0.377v2.264c0,0.208,0.169,0.377,0.377,0.377h3.067  c0.208,0,0.377-0.169,0.377-0.377v-2.264c0-0.208-0.169-0.377-0.377-0.377H54.249L54.249,34.329z M46.467,34.329  c-0.208,0-0.377,0.169-0.377,0.377v2.264c0,0.208,0.169,0.377,0.377,0.377h3.067c0.208,0,0.377-0.169,0.377-0.377v-2.264  c0-0.208-0.169-0.377-0.377-0.377H46.467z"/></svg>