<!-- <svg xmlns="http://www.w3.org/2000/svg" version="1.1"
xmlns:xlink="http://www.w3.org/1999/xlink"
    xmlns:svgjs="http://svgjs.dev/svgjs" width="1920" height="1080" preserveAspectRatio="none"
    viewBox="0 0 450 600">
    <g mask="url(&quot;#SvgjsMask1134&quot;)" fill="none">
        <rect width="1920" height="1080" x="0" y="0" fill="rgba(199, 203, 201, 0.0)"></rect>
        <path
d="M0,589.633C164.605,597.421,313.515,788.161,465.325,724.06C611.232,662.451,607.184,451.388,670.853,306.368C733.413,163.874,843.701,35.235,835.984,-120.196C828.013,-280.733,735.614,-424.754,628.598,-544.684C522.616,-663.455,391.793,-778.229,233.534,-795.344C81.407,-811.796,-52.113,-707.206,-185.794,-632.756C-293.445,-572.802,-369.438,-479.757,-467.38,-404.987C-596.792,-306.193,-795.501,-274.764,-853.843,-122.764C-912.112,29.046,-829.919,200.464,-755.203,344.89C-682.903,484.646,-587.548,632.817,-437.862,681.327C-293.072,728.25,-152.033,582.44,0,589.633"
            fill="rgba(255, 255, 255, 0.20)"
        ></path>
        <path
            d="M1920 1950.182C2084.968 1946.248 2241.082 1884.833 2379.545 1795.066 2517.607 1705.559 2668.622
1599.517 2707.5 1439.6390000000001 2745.49 1283.413 2593.918 1145.446 2576.376 985.627 2557.882
817.134 2691.376 632.8050000000001 2603.058 488.12699999999995 2515.726 345.06399999999996 2317.867
313.60900000000004 2151.89 290.256 2000.808 268.999 1858.482 330.467 1709.285 362.371 1546.151
397.255 1333.934 352.11 1234.885 486.345 1134.35 622.594 1278.56 816.75 1250.763 983.778 1221.955
1156.879 1031.559 1296.597 1071.607 1467.4479999999999 1111.404 1637.2240000000002
1294.5900000000001 1731.085 1446.151 1817.3229999999999 1591.675 1900.126 1752.616 1954.173 1920
1950.182"
            fill="rgba(255, 255, 255, 0.40)"
        ></path>
    </g>
    <defs>
        <mask id="SvgjsMask1134">
            <rect width="1920" height="1080" fill="#ffffff"></rect>
        </mask>
    </defs>
</svg>
 -->


<svg xmlns="http://www.w3.org/2000/svg" version="1.1" xmlns:xlink="http://www.w3.org/1999/xlink"
    xmlns:svgjs="http://svgjs.dev/svgjs" width="500" height="1200" preserveAspectRatio="none"
    viewBox="0 0 500 1200">
    <g mask="url(&quot;#SvgjsMask1014&quot;)" fill="none">
        <rect width="500" height="1200" x="0" y="0" fill="rgba(199, 203, 201, 0.0)"></rect>
        <path
            d="M0,537.73C105.397,545.345,228.547,546.84,303.672,472.524C378.72,398.284,329.624,266.57,371.897,169.84C413.065,75.637,551.371,24.298,544.378,-78.27C537.49,-179.286,402.438,-214.922,340.217,-294.799C273.077,-380.99,266.841,-523.02,165.716,-564.378C65.392,-605.408,-48.229,-542.37,-144.806,-493.163C-229.505,-450.008,-283.083,-370.922,-348.791,-302.229C-418.412,-229.445,-521.262,-176.49,-541.997,-77.927C-562.929,21.57,-503.227,118.193,-456.201,208.34C-411.249,294.512,-355.523,373.696,-276.724,430.591C-194.872,489.691,-100.696,530.455,0,537.73"
            fill="rgba(255, 255, 255, 0.20)"
        ></path>
        <path
            d="M500 1562.7350000000001C566.211 1554.478 615.134 1501.478 665.986 1458.279 710.718 1420.279 745.842 1376.117 777.703 1326.823 814.748 1269.509 870.787 1215.369 867.034 1147.228 863.241 1078.369 801.427 1029.99 758.385 976.108 713.4780000000001 919.892 673.862 858.548 609.98 825.442 537.888 788.081 451.627 748.211 376.086 777.988 300.488 807.788 290.81399999999996 911.219 237.284 972.355 183.346 1033.956 65.82299999999998 1055.212 61.747000000000014 1136.989 57.55000000000001 1221.2 172.89800000000002 1257.844 219.555 1328.075 256.262 1383.329 254.215 1460.717 305.09000000000003 1503.286 358.26099999999997 1547.776 431.204 1571.315 500 1562.7350000000001"
            fill="rgba(255, 255, 255, 0.40)"
        ></path>
    </g>
    <defs>
        <mask id="SvgjsMask1014">
            <rect width="500" height="1200" fill="#ffffff"></rect>
        </mask>
    </defs>
</svg>